<svg width="1865" height="2253" viewBox="0 0 1865 2253" fill="none" xmlns="http://www.w3.org/2000/svg">
<g filter="url(#filter0_f_196_283)">
<circle cx="691" cy="1006" r="150" fill="#EC7651"/>
</g>
<g filter="url(#filter1_f_196_283)">
<circle cx="1315" cy="840" r="150" fill="#7051EC"/>
</g>
<g filter="url(#filter2_f_196_283)">
<circle cx="980" cy="889" r="150" fill="#BA51EC"/>
</g>
<g filter="url(#filter3_f_196_283)">
<ellipse cx="623.933" cy="1039.96" rx="150" ry="58.8078" transform="rotate(170 623.933 1039.96)" fill="#EC7651"/>
</g>
<g filter="url(#filter4_f_196_283)">
<circle cx="1263.77" cy="963.768" r="150" transform="rotate(170 1263.77 963.768)" fill="#7051EC"/>
</g>
<g filter="url(#filter5_f_196_283)">
<ellipse cx="921.07" cy="969.108" rx="150" ry="105.666" transform="rotate(170 921.07 969.108)" fill="#BA51EC"/>
</g>
<circle cx="150.75" cy="1417.75" r="0.75" fill="#D9D9D9"/>
<circle cx="264.75" cy="1557.75" r="0.75" fill="#D9D9D9"/>
<circle cx="284.75" cy="1395.75" r="0.75" fill="#D9D9D9"/>
<circle cx="117.75" cy="1207.75" r="0.75" fill="#D9D9D9"/>
<circle cx="352.75" cy="1062.75" r="0.75" fill="#D9D9D9"/>
<circle cx="382.75" cy="1225.75" r="0.75" fill="#D9D9D9"/>
<circle cx="264.75" cy="1179.75" r="0.75" fill="#D9D9D9"/>
<circle cx="493.75" cy="1517.75" r="0.75" fill="#D9D9D9"/>
<circle cx="91.75" cy="1020.75" r="0.75" fill="#D9D9D9"/>
<circle cx="314.75" cy="930.75" r="0.75" fill="#D9D9D9"/>
<circle cx="164.75" cy="918.75" r="0.75" fill="#D9D9D9"/>
<circle cx="11.75" cy="1540.75" r="0.75" fill="#D9D9D9"/>
<circle cx="1301.77" cy="1420.6" r="0.75" transform="rotate(-36.1717 1301.77 1420.6)" fill="#D9D9D9"/>
<circle cx="1476.43" cy="1466.33" r="0.75" transform="rotate(-36.1717 1476.43 1466.33)" fill="#D9D9D9"/>
<circle cx="1396.96" cy="1323.76" r="0.75" transform="rotate(-36.1717 1396.96 1323.76)" fill="#D9D9D9"/>
<circle cx="1151.19" cy="1270.56" r="0.75" transform="rotate(-36.1717 1151.19 1270.56)" fill="#D9D9D9"/>
<circle cx="1255.31" cy="1014.81" r="0.75" transform="rotate(-36.1717 1255.31 1014.81)" fill="#D9D9D9"/>
<circle cx="1375.73" cy="1128.68" r="0.75" transform="rotate(-36.1717 1375.73 1128.68)" fill="#D9D9D9"/>
<circle cx="1253.33" cy="1161.19" r="0.75" transform="rotate(-36.1717 1253.33 1161.19)" fill="#D9D9D9"/>
<circle cx="1637.68" cy="1298.89" r="0.75" transform="rotate(-36.1717 1637.68 1298.89)" fill="#D9D9D9"/>
<circle cx="1019.83" cy="1134.95" r="0.75" transform="rotate(-36.1717 1019.83 1134.95)" fill="#D9D9D9"/>
<circle cx="1146.73" cy="930.677" r="0.75" transform="rotate(-36.1717 1146.73 930.677)" fill="#D9D9D9"/>
<circle cx="1018.56" cy="1009.52" r="0.75" transform="rotate(-36.1717 1018.56 1009.52)" fill="#D9D9D9"/>
<circle cx="1262.16" cy="1601.93" r="0.75" transform="rotate(-36.1717 1262.16 1601.93)" fill="#D9D9D9"/>
<circle cx="463.023" cy="2054.34" r="0.75" transform="rotate(-47.5381 463.023 2054.34)" fill="#D9D9D9"/>
<circle cx="643.267" cy="2064.76" r="0.75" transform="rotate(-47.5381 643.267 2064.76)" fill="#D9D9D9"/>
<circle cx="537.257" cy="1940.64" r="0.75" transform="rotate(-47.5381 537.257 1940.64)" fill="#D9D9D9"/>
<circle cx="285.823" cy="1936.92" r="0.75" transform="rotate(-47.5381 285.823 1936.92)" fill="#D9D9D9"/>
<circle cx="337.501" cy="1665.66" r="0.75" transform="rotate(-47.5381 337.501 1665.66)" fill="#D9D9D9"/>
<circle cx="478.004" cy="1753.57" r="0.75" transform="rotate(-47.5381 478.004 1753.57)" fill="#D9D9D9"/>
<circle cx="364.406" cy="1809.57" r="0.75" transform="rotate(-47.5381 364.406 1809.57)" fill="#D9D9D9"/>
<circle cx="768.356" cy="1868.81" r="0.75" transform="rotate(-47.5381 768.356 1868.81)" fill="#D9D9D9"/>
<circle cx="130.315" cy="1829.85" r="0.75" transform="rotate(-47.5381 130.315 1829.85)" fill="#D9D9D9"/>
<circle cx="214.468" cy="1604.58" r="0.75" transform="rotate(-47.5381 214.468 1604.58)" fill="#D9D9D9"/>
<circle cx="104.35" cy="1707.14" r="0.75" transform="rotate(-47.5381 104.35 1707.14)" fill="#D9D9D9"/>
<circle cx="459.925" cy="2239.92" r="0.75" transform="rotate(-47.5381 459.925 2239.92)" fill="#D9D9D9"/>
<circle cx="370.5" cy="545.5" r="0.5" fill="#D9D9D9"/>
<circle cx="537.5" cy="545.5" r="0.5" fill="#D9D9D9"/>
<circle cx="420.5" cy="839.5" r="0.5" fill="#D9D9D9"/>
<circle cx="700.5" cy="595.5" r="0.5" fill="#D9D9D9"/>
<circle cx="470.5" cy="689.5" r="0.5" fill="#D9D9D9"/>
<circle cx="222.5" cy="738.5" r="0.5" fill="#D9D9D9"/>
<circle cx="919.5" cy="445.5" r="0.5" fill="#D9D9D9"/>
<circle cx="919.5" cy="689.5" r="0.5" fill="#D9D9D9"/>
<circle cx="717.5" cy="711.5" r="0.5" fill="#D9D9D9"/>
<circle cx="717.5" cy="874.5" r="0.5" fill="#D9D9D9"/>
<circle cx="620.5" cy="811.5" r="0.5" fill="#D9D9D9"/>
<circle cx="520.5" cy="989.5" r="0.5" fill="#D9D9D9"/>
<circle cx="1191.5" cy="100.5" r="0.5" fill="#D9D9D9"/>
<circle cx="1358.5" cy="100.5" r="0.5" fill="#D9D9D9"/>
<circle cx="1241.5" cy="394.5" r="0.5" fill="#D9D9D9"/>
<circle cx="1521.5" cy="150.5" r="0.5" fill="#D9D9D9"/>
<circle cx="1291.5" cy="244.5" r="0.5" fill="#D9D9D9"/>
<circle cx="1043.5" cy="293.5" r="0.5" fill="#D9D9D9"/>
<circle cx="1740.5" cy="0.5" r="0.5" fill="#D9D9D9"/>
<circle cx="1740.5" cy="244.5" r="0.5" fill="#D9D9D9"/>
<circle cx="1538.5" cy="266.5" r="0.5" fill="#D9D9D9"/>
<circle cx="1538.5" cy="429.5" r="0.5" fill="#D9D9D9"/>
<circle cx="1441.5" cy="366.5" r="0.5" fill="#D9D9D9"/>
<circle cx="1341.5" cy="544.5" r="0.5" fill="#D9D9D9"/>
<circle cx="656" cy="451" r="1" fill="#D9D9D9"/>
<circle cx="515" cy="343" r="1" fill="#D9D9D9"/>
<circle cx="606" cy="541" r="1" fill="#D9D9D9"/>
<circle cx="398" cy="451" r="1" fill="#D9D9D9"/>
<circle cx="398" cy="681" r="1" fill="#D9D9D9"/>
<circle cx="624" cy="702" r="1" fill="#D9D9D9"/>
<circle cx="836" cy="525" r="1" fill="#D9D9D9"/>
<circle cx="892" cy="351" r="1" fill="#D9D9D9"/>
<circle cx="559.334" cy="715.92" r="1.5" transform="rotate(23.8035 559.334 715.92)" fill="#D9D9D9"/>
<circle cx="473.918" cy="560.199" r="1.5" transform="rotate(23.8035 473.918 560.199)" fill="#D9D9D9"/>
<circle cx="477.264" cy="778.084" r="1.5" transform="rotate(23.8035 477.264 778.084)" fill="#D9D9D9"/>
<circle cx="323.282" cy="611.791" r="1.5" transform="rotate(23.8035 323.282 611.791)" fill="#D9D9D9"/>
<circle cx="230.454" cy="822.226" r="1.5" transform="rotate(23.8035 230.454 822.226)" fill="#D9D9D9"/>
<circle cx="428.752" cy="932.653" r="1.5" transform="rotate(23.8035 428.752 932.653)" fill="#D9D9D9"/>
<circle cx="694.157" cy="856.273" r="1.5" transform="rotate(23.8035 694.157 856.273)" fill="#D9D9D9"/>
<circle cx="815.62" cy="719.677" r="1.5" transform="rotate(23.8035 815.62 719.677)" fill="#D9D9D9"/>
<defs>
<filter id="filter0_f_196_283" x="141" y="456" width="1100" height="1100" filterUnits="userSpaceOnUse" color-interpolation-filters="sRGB">
<feFlood flood-opacity="0" result="BackgroundImageFix"/>
<feBlend mode="normal" in="SourceGraphic" in2="BackgroundImageFix" result="shape"/>
<feGaussianBlur stdDeviation="200" result="effect1_foregroundBlur_196_283"/>
</filter>
<filter id="filter1_f_196_283" x="765" y="290" width="1100" height="1100" filterUnits="userSpaceOnUse" color-interpolation-filters="sRGB">
<feFlood flood-opacity="0" result="BackgroundImageFix"/>
<feBlend mode="normal" in="SourceGraphic" in2="BackgroundImageFix" result="shape"/>
<feGaussianBlur stdDeviation="200" result="effect1_foregroundBlur_196_283"/>
</filter>
<filter id="filter2_f_196_283" x="430" y="339" width="1100" height="1100" filterUnits="userSpaceOnUse" color-interpolation-filters="sRGB">
<feFlood flood-opacity="0" result="BackgroundImageFix"/>
<feBlend mode="normal" in="SourceGraphic" in2="BackgroundImageFix" result="shape"/>
<feGaussianBlur stdDeviation="200" result="effect1_foregroundBlur_196_283"/>
</filter>
<filter id="filter3_f_196_283" x="75.8535" y="576.444" width="1096.16" height="927.036" filterUnits="userSpaceOnUse" color-interpolation-filters="sRGB">
<feFlood flood-opacity="0" result="BackgroundImageFix"/>
<feBlend mode="normal" in="SourceGraphic" in2="BackgroundImageFix" result="shape"/>
<feGaussianBlur stdDeviation="200" result="effect1_foregroundBlur_196_283"/>
</filter>
<filter id="filter4_f_196_283" x="713.743" y="413.743" width="1100.05" height="1100.05" filterUnits="userSpaceOnUse" color-interpolation-filters="sRGB">
<feFlood flood-opacity="0" result="BackgroundImageFix"/>
<feBlend mode="normal" in="SourceGraphic" in2="BackgroundImageFix" result="shape"/>
<feGaussianBlur stdDeviation="200" result="effect1_foregroundBlur_196_283"/>
</filter>
<filter id="filter5_f_196_283" x="372.198" y="461.811" width="1097.74" height="1014.59" filterUnits="userSpaceOnUse" color-interpolation-filters="sRGB">
<feFlood flood-opacity="0" result="BackgroundImageFix"/>
<feBlend mode="normal" in="SourceGraphic" in2="BackgroundImageFix" result="shape"/>
<feGaussianBlur stdDeviation="200" result="effect1_foregroundBlur_196_283"/>
</filter>
</defs>
</svg>
