<svg width="1280" height="419" viewBox="0 0 1280 419" fill="none" xmlns="http://www.w3.org/2000/svg">
<path d="M1479.5 49.8863C1481.26 58.9735 1477.37 69.0229 1468.15 79.8747C1458.93 90.7194 1444.44 102.287 1425.18 114.376C1386.68 138.551 1329.24 164.745 1257.11 191.377C1112.86 244.637 909.953 299.615 682.586 343.681C455.219 387.747 246.465 412.553 92.7598 417.04C15.9031 419.283 -47.1662 416.445 -91.9096 408.404C-114.284 404.382 -132.045 399.065 -144.65 392.45C-157.263 385.831 -164.624 377.962 -166.385 368.875C-168.146 359.788 -164.258 349.739 -155.031 338.887C-145.81 328.042 -131.321 316.474 -112.069 304.386C-73.5697 280.211 -16.1271 254.017 56.0028 227.385C200.255 174.124 403.162 119.146 630.529 75.0804C857.896 31.0145 1066.65 6.20849 1220.36 1.72187C1297.21 -0.521536 1360.28 2.31627 1405.02 10.3578C1427.4 14.3791 1445.16 19.6964 1457.76 26.3111C1470.38 32.9301 1477.74 40.7991 1479.5 49.8863Z" stroke="white" stroke-opacity="0.05"/>
</svg>
