<svg width="100" height="20" viewBox="0 0 100 20" fill="none" xmlns="http://www.w3.org/2000/svg">
<path d="M16.6292 7.64045C16.6292 11.8602 12.9066 15.2809 8.31461 15.2809C3.72258 15.2809 0 11.8602 0 7.64045C0 3.42075 3.72258 0 8.31461 0C12.9066 0 16.6292 3.42075 16.6292 7.64045ZM3.0299 7.64045C3.0299 10.3225 5.39595 12.4967 8.31461 12.4967C11.2333 12.4967 13.5993 10.3225 13.5993 7.64045C13.5993 4.95844 11.2333 2.78424 8.31461 2.78424C5.39595 2.78424 3.0299 4.95844 3.0299 7.64045Z" fill="#D9D9D9"/>
<path d="M37.303 7.64057C37.303 11.8603 33.5805 15.281 28.9884 15.281C24.3964 15.281 20.6738 11.8603 20.6738 7.64057C20.6738 3.42087 24.3964 0.00012207 28.9884 0.00012207C33.5805 0.00012207 37.303 3.42087 37.303 7.64057ZM23.7037 7.64057C23.7037 10.3226 26.0698 12.4968 28.9884 12.4968C31.9071 12.4968 34.2731 10.3226 34.2731 7.64057C34.2731 4.95856 31.9071 2.78436 28.9884 2.78436C26.0698 2.78436 23.7037 4.95856 23.7037 7.64057Z" fill="#D9D9D9"/>
<rect x="6.74219" y="9.72217" width="3.16397" height="12.4629" transform="rotate(-41.1411 6.74219 9.72217)" fill="#D9D9D9"/>
<rect x="41.3477" y="14.8315" width="2.69663" height="9.4382" transform="rotate(-90 41.3477 14.8315)" fill="#D9D9D9"/>
<rect x="72.3594" y="3.14624" width="2.69663" height="7.64045" transform="rotate(-90 72.3594 3.14624)" fill="#D9D9D9"/>
<rect x="71.9102" y="8.98889" width="2.69663" height="7.64045" transform="rotate(-90 71.9102 8.98889)" fill="#D9D9D9"/>
<rect x="72.3594" y="14.8315" width="2.69663" height="7.64045" transform="rotate(-90 72.3594 14.8315)" fill="#D9D9D9"/>
<rect x="41.3477" y="0.00012207" width="2.69663" height="12.5843" fill="#D9D9D9"/>
<rect x="71.9102" y="0.449585" width="3.14607" height="14.382" fill="#D9D9D9"/>
<path d="M83.5957 0.224854H86.7418L93.2586 14.8316H90.3373L83.5957 0.224854Z" fill="#D9D9D9"/>
<path d="M100 0.224854H96.8539L90.5618 14.8316H93.6399L100 0.224854Z" fill="#D9D9D9"/>
<path d="M59.5509 2.69764L55.2812 2.61756V0.000244141H59.5509V2.69764Z" fill="#D9D9D9"/>
<path d="M59.5509 14.8316C61.7561 14.8316 63.871 14.0503 65.4302 12.6596C66.9895 11.2688 67.8655 9.38263 67.8655 7.41585C67.8655 5.44908 66.9895 3.56286 65.4303 2.17214C63.871 0.781421 61.7561 0.000122453 59.5509 0.00012207L59.5509 2.70247C60.9525 2.70247 62.2967 3.19906 63.2878 4.08299C64.2789 4.96692 64.8356 6.16579 64.8356 7.41585C64.8356 8.66592 64.2789 9.86479 63.2878 10.7487C62.2967 11.6326 60.9525 12.1292 59.5509 12.1292V14.8316Z" fill="#D9D9D9"/>
<path d="M55.2812 14.8316L59.5509 14.8316V12.1342L55.2812 12.2143V14.8316Z" fill="#D9D9D9"/>
<path d="M55.2812 2.61755H58.2026V13.0868H55.2812V2.61755Z" fill="#D9D9D9"/>
</svg>
