<svg width="30" height="30" viewBox="0 0 30 30" fill="none" xmlns="http://www.w3.org/2000/svg">
<path d="M25.5469 16C26.0992 16 26.5469 15.5523 26.5469 15C26.5469 14.4477 26.0992 14 25.5469 14V16ZM25.25 15C25.25 20.6609 20.6609 25.25 15 25.25V27.25C21.7655 27.25 27.25 21.7655 27.25 15H25.25ZM15 25.25C9.33908 25.25 4.75 20.6609 4.75 15H2.75C2.75 21.7655 8.23451 27.25 15 27.25V25.25ZM4.75 15C4.75 9.33908 9.33908 4.75 15 4.75V2.75C8.23451 2.75 2.75 8.23451 2.75 15H4.75ZM15 4.75C20.6609 4.75 25.25 9.33908 25.25 15H27.25C27.25 8.23451 21.7655 2.75 15 2.75V4.75ZM15 25.25C14.6513 25.25 14.2403 25.0927 13.7792 24.647C13.3134 24.1966 12.8482 23.4967 12.4359 22.5541C11.6125 20.6721 11.0781 18.002 11.0781 15H9.07813C9.07813 18.2112 9.64559 21.1662 10.6036 23.3558C11.0819 24.4491 11.6773 25.3967 12.3891 26.0849C13.1058 26.7777 13.9896 27.25 15 27.25V25.25ZM11.0781 15C11.0781 11.998 11.6125 9.32795 12.4359 7.44587C12.8482 6.50334 13.3134 5.80339 13.7792 5.35303C14.2403 4.90732 14.6513 4.75 15 4.75V2.75C13.9896 2.75 13.1058 3.22227 12.3891 3.91513C11.6773 4.60334 11.0819 5.55091 10.6036 6.64423C9.64559 8.83385 9.07813 11.7888 9.07813 15H11.0781ZM15 27.25C16.0104 27.25 16.8942 26.7777 17.6109 26.0849C18.3227 25.3967 18.9181 24.4491 19.3964 23.3558C20.3544 21.1662 20.9219 18.2112 20.9219 15H18.9219C18.9219 18.002 18.3875 20.6721 17.5641 22.5541C17.1518 23.4967 16.6866 24.1966 16.2208 24.647C15.7597 25.0927 15.3487 25.25 15 25.25V27.25ZM20.9219 15C20.9219 11.7888 20.3544 8.83385 19.3964 6.64423C18.9181 5.55091 18.3227 4.60334 17.6109 3.91513C16.8942 3.22227 16.0104 2.75 15 2.75V4.75C15.3487 4.75 15.7597 4.90732 16.2208 5.35303C16.6866 5.80339 17.1518 6.50334 17.5641 7.44587C18.3875 9.32795 18.9219 11.998 18.9219 15H20.9219ZM3.75 16L25.5469 16V14L3.75 14L3.75 16Z" fill="#D9D9D9" fill-opacity="0.8"/>
</svg>
