<svg width="2606" height="1867" viewBox="0 0 2606 1867" fill="none" xmlns="http://www.w3.org/2000/svg">
<path d="M159.059 1333.71C122.836 1255.96 116.874 1170.23 141.544 1081.79C166.215 993.355 220.998 904.08 302.529 819.458C384.06 734.837 490.613 656.661 615.636 589.741C740.66 522.821 881.508 468.571 1029.52 430.33C1177.53 392.089 1329.57 370.664 1476.29 367.374C1623.02 364.084 1761.32 378.998 1882.68 411.198C2004.05 443.397 2105.93 492.2 2182.04 554.603C2258.15 617.005 2306.88 691.685 2325.26 774.049" stroke="white" stroke-width="0.2"/>
<g filter="url(#filter0_f_449_117)">
<circle cx="1004" cy="350" r="200" fill="url(#paint0_linear_449_117)"/>
</g>
<circle cx="1004" cy="350" r="200" fill="url(#paint1_linear_449_117)"/>
<g filter="url(#filter1_f_449_117)">
<circle cx="2040" cy="611" r="100" fill="url(#paint2_linear_449_117)"/>
</g>
<circle cx="2040" cy="611" r="100" fill="url(#paint3_linear_449_117)"/>
<circle cx="988.8" cy="1080.8" r="0.8" fill="#D9D9D9"/>
<circle cx="1038.8" cy="784.8" r="0.8" fill="#D9D9D9"/>
<circle cx="1097.8" cy="998.8" r="0.8" fill="#D9D9D9"/>
<circle cx="1241.8" cy="819.8" r="0.8" fill="#D9D9D9"/>
<circle cx="911.8" cy="917.8" r="0.8" fill="#D9D9D9"/>
<circle cx="1138.8" cy="640.8" r="0.8" fill="#D9D9D9"/>
<circle cx="920.8" cy="623.8" r="0.8" fill="#D9D9D9"/>
<circle cx="1307.8" cy="1152.8" r="0.8" fill="#D9D9D9"/>
<circle cx="1110.8" cy="1152.8" r="0.8" fill="#D9D9D9"/>
<circle cx="1120.8" cy="834.8" r="0.8" fill="#D9D9D9"/>
<circle cx="1011.8" cy="891.8" r="0.8" fill="#D9D9D9"/>
<circle cx="1170.8" cy="511.8" r="0.8" fill="#D9D9D9"/>
<circle cx="1437.8" cy="579.8" r="0.8" fill="#D9D9D9"/>
<circle cx="1444.8" cy="869.8" r="0.8" fill="#D9D9D9"/>
<circle cx="1966.8" cy="695.8" r="0.8" fill="#D9D9D9"/>
<circle cx="2016.8" cy="399.8" r="0.8" fill="#D9D9D9"/>
<circle cx="2075.8" cy="613.8" r="0.8" fill="#D9D9D9"/>
<circle cx="2219.8" cy="434.8" r="0.8" fill="#D9D9D9"/>
<circle cx="1889.8" cy="532.8" r="0.8" fill="#D9D9D9"/>
<circle cx="2116.8" cy="255.8" r="0.8" fill="#D9D9D9"/>
<circle cx="1898.8" cy="238.8" r="0.8" fill="#D9D9D9"/>
<circle cx="2285.8" cy="767.8" r="0.8" fill="#D9D9D9"/>
<circle cx="2088.8" cy="767.8" r="0.8" fill="#D9D9D9"/>
<circle cx="2098.8" cy="449.8" r="0.8" fill="#D9D9D9"/>
<circle cx="1989.8" cy="506.8" r="0.8" fill="#D9D9D9"/>
<circle cx="2148.8" cy="126.8" r="0.8" fill="#D9D9D9"/>
<circle cx="2415.8" cy="194.8" r="0.8" fill="#D9D9D9"/>
<circle cx="2422.8" cy="484.8" r="0.8" fill="#D9D9D9"/>
<circle cx="2205.38" cy="1330.29" r="0.8" transform="rotate(-39.0479 2205.38 1330.29)" fill="#D9D9D9"/>
<circle cx="2057.74" cy="1068.91" r="0.8" transform="rotate(-39.0479 2057.74 1068.91)" fill="#D9D9D9"/>
<circle cx="2238.37" cy="1197.94" r="0.8" transform="rotate(-39.0479 2238.37 1197.94)" fill="#D9D9D9"/>
<circle cx="2237.44" cy="968.208" r="0.8" transform="rotate(-39.0479 2237.44 968.208)" fill="#D9D9D9"/>
<circle cx="2042.89" cy="1252.21" r="0.8" transform="rotate(-39.0479 2042.89 1252.21)" fill="#D9D9D9"/>
<circle cx="2044.68" cy="894.08" r="0.8" transform="rotate(-39.0479 2044.68 894.08)" fill="#D9D9D9"/>
<circle cx="1864.67" cy="1018.21" r="0.8" transform="rotate(-39.0479 1864.67 1018.21)" fill="#D9D9D9"/>
<circle cx="2498.48" cy="1185.24" r="0.8" transform="rotate(-39.0479 2498.48 1185.24)" fill="#D9D9D9"/>
<circle cx="2345.48" cy="1309.35" r="0.8" transform="rotate(-39.0479 2345.48 1309.35)" fill="#D9D9D9"/>
<circle cx="2152.92" cy="1056.08" r="0.8" transform="rotate(-39.0479 2152.92 1056.08)" fill="#D9D9D9"/>
<circle cx="2104.18" cy="1169.02" r="0.8" transform="rotate(-39.0479 2104.18 1169.02)" fill="#D9D9D9"/>
<circle cx="1988.27" cy="773.737" r="0.8" transform="rotate(-39.0479 1988.27 773.737)" fill="#D9D9D9"/>
<circle cx="2238.47" cy="658.345" r="0.8" transform="rotate(-39.0479 2238.47 658.345)" fill="#D9D9D9"/>
<circle cx="2426.59" cy="879.155" r="0.8" transform="rotate(-39.0479 2426.59 879.155)" fill="#D9D9D9"/>
<defs>
<filter id="filter0_f_449_117" x="654" y="0" width="700" height="700" filterUnits="userSpaceOnUse" color-interpolation-filters="sRGB">
<feFlood flood-opacity="0" result="BackgroundImageFix"/>
<feBlend mode="normal" in="SourceGraphic" in2="BackgroundImageFix" result="shape"/>
<feGaussianBlur stdDeviation="75" result="effect1_foregroundBlur_449_117"/>
</filter>
<filter id="filter1_f_449_117" x="1840" y="411" width="400" height="400" filterUnits="userSpaceOnUse" color-interpolation-filters="sRGB">
<feFlood flood-opacity="0" result="BackgroundImageFix"/>
<feBlend mode="normal" in="SourceGraphic" in2="BackgroundImageFix" result="shape"/>
<feGaussianBlur stdDeviation="50" result="effect1_foregroundBlur_449_117"/>
</filter>
<linearGradient id="paint0_linear_449_117" x1="1121" y1="250.5" x2="916.5" y2="550" gradientUnits="userSpaceOnUse">
<stop stop-color="#FF80F2"/>
<stop offset="1" stop-color="#5200FF"/>
</linearGradient>
<linearGradient id="paint1_linear_449_117" x1="1121" y1="250.5" x2="916.5" y2="550" gradientUnits="userSpaceOnUse">
<stop stop-color="#F7B87D"/>
<stop offset="1" stop-color="#5200FF"/>
</linearGradient>
<linearGradient id="paint2_linear_449_117" x1="1950.5" y1="744.5" x2="2111" y2="533.5" gradientUnits="userSpaceOnUse">
<stop stop-color="#2400FF"/>
<stop offset="0.699367" stop-color="#FF6B00"/>
<stop offset="1" stop-color="#FFAA6D"/>
</linearGradient>
<linearGradient id="paint3_linear_449_117" x1="1950.5" y1="744.5" x2="2111" y2="533.5" gradientUnits="userSpaceOnUse">
<stop stop-color="#2400FF"/>
<stop offset="0.699367" stop-color="#FF6B00"/>
<stop offset="1" stop-color="#FFAA6D"/>
</linearGradient>
</defs>
</svg>
