<svg width="13" height="15" viewBox="0 0 13 15" fill="none" xmlns="http://www.w3.org/2000/svg">
<path d="M12.4783 5.73326C12.4783 8.89965 9.68492 11.4665 6.23914 11.4665C2.79336 11.4665 0 8.89965 0 5.73326C0 2.56687 2.79336 0 6.23914 0C9.68492 0 12.4783 2.56687 12.4783 5.73326ZM2.27359 5.73326C2.27359 7.7458 4.04902 9.37728 6.23914 9.37728C8.42925 9.37728 10.2047 7.7458 10.2047 5.73326C10.2047 3.72073 8.42925 2.08924 6.23914 2.08924C4.04902 2.08924 2.27359 3.72073 2.27359 5.73326Z" fill="#D9D9D9"/>
<rect x="5.05859" y="7.29535" width="2.37419" height="9.35195" transform="rotate(-41.1411 5.05859 7.29535)" fill="#D9D9D9"/>
</svg>
