<svg width="1268" height="1693" viewBox="0 0 1268 1693" fill="none" xmlns="http://www.w3.org/2000/svg">
<g filter="url(#filter0_f_196_182)">
<ellipse cx="479.04" cy="1149.2" rx="150" ry="58.8078" transform="rotate(108.528 479.04 1149.2)" fill="#EC7651"/>
</g>
<g filter="url(#filter1_f_196_182)">
<circle cx="717.674" cy="550.66" r="150" transform="rotate(108.528 717.674 550.66)" fill="#7051EC"/>
</g>
<g filter="url(#filter2_f_196_182)">
<ellipse cx="558.698" cy="854.299" rx="150" ry="105.666" transform="rotate(108.528 558.698 854.299)" fill="#BA51EC"/>
</g>
<circle cx="871.318" cy="578.812" r="1" transform="rotate(110.743 871.318 578.812)" fill="#D9D9D9"/>
<circle cx="675.013" cy="478.803" r="1" transform="rotate(110.743 675.013 478.803)" fill="#D9D9D9"/>
<circle cx="758.261" cy="541.34" r="1" transform="rotate(110.743 758.261 541.34)" fill="#D9D9D9"/>
<circle cx="629.326" cy="599.44" r="1" transform="rotate(110.743 629.326 599.44)" fill="#D9D9D9"/>
<circle cx="492.22" cy="506.881" r="1" transform="rotate(110.743 492.22 506.881)" fill="#D9D9D9"/>
<circle cx="533.66" cy="397.465" r="1" transform="rotate(110.743 533.66 397.465)" fill="#D9D9D9"/>
<circle cx="790.506" cy="738.544" r="1" transform="rotate(110.743 790.506 738.544)" fill="#D9D9D9"/>
<circle cx="972.035" cy="631.926" r="1" transform="rotate(110.743 972.035 631.926)" fill="#D9D9D9"/>
<circle cx="1159.3" cy="775.562" r="1" transform="rotate(110.743 1159.3 775.562)" fill="#D9D9D9"/>
<circle cx="939.865" cy="770.516" r="1" transform="rotate(110.743 939.865 770.516)" fill="#D9D9D9"/>
<circle cx="439.093" cy="647.158" r="1" transform="rotate(110.743 439.093 647.158)" fill="#D9D9D9"/>
<circle cx="290.25" cy="421.835" r="1" transform="rotate(110.743 290.25 421.835)" fill="#D9D9D9"/>
<circle cx="411.406" cy="344.749" r="1" transform="rotate(110.743 411.406 344.749)" fill="#D9D9D9"/>
<circle cx="335.421" cy="1024.01" r="1" transform="rotate(-67.1273 335.421 1024.01)" fill="#D9D9D9"/>
<circle cx="527.873" cy="1131.25" r="1" transform="rotate(-67.1273 527.873 1131.25)" fill="#D9D9D9"/>
<circle cx="447.007" cy="1065.66" r="1" transform="rotate(-67.1273 447.007 1065.66)" fill="#D9D9D9"/>
<circle cx="578.013" cy="1012.39" r="1" transform="rotate(-67.1273 578.013 1012.39)" fill="#D9D9D9"/>
<circle cx="711.583" cy="1109.98" r="1" transform="rotate(-67.1273 711.583 1109.98)" fill="#D9D9D9"/>
<circle cx="666.107" cy="1217.78" r="1" transform="rotate(-67.1273 666.107 1217.78)" fill="#D9D9D9"/>
<circle cx="422.113" cy="867.393" r="1" transform="rotate(-67.1273 422.113 867.393)" fill="#D9D9D9"/>
<circle cx="236.748" cy="967.191" r="1" transform="rotate(-67.1273 236.748 967.191)" fill="#D9D9D9"/>
<circle cx="54.9487" cy="816.695" r="1" transform="rotate(-67.1273 54.9487 816.695)" fill="#D9D9D9"/>
<circle cx="274.046" cy="829.893" r="1" transform="rotate(-67.1273 274.046 829.893)" fill="#D9D9D9"/>
<circle cx="769.886" cy="971.774" r="1" transform="rotate(-67.1273 769.886 971.774)" fill="#D9D9D9"/>
<circle cx="910.255" cy="1202.47" r="1" transform="rotate(-67.1273 910.255 1202.47)" fill="#D9D9D9"/>
<circle cx="786.318" cy="1275" r="1" transform="rotate(-67.1273 786.318 1275)" fill="#D9D9D9"/>
<circle cx="616.421" cy="841.012" r="1" transform="rotate(-67.1273 616.421 841.012)" fill="#D9D9D9"/>
<circle cx="808.873" cy="948.246" r="1" transform="rotate(-67.1273 808.873 948.246)" fill="#D9D9D9"/>
<circle cx="728.007" cy="882.658" r="1" transform="rotate(-67.1273 728.007 882.658)" fill="#D9D9D9"/>
<circle cx="859.013" cy="829.389" r="1" transform="rotate(-67.1273 859.013 829.389)" fill="#D9D9D9"/>
<circle cx="992.583" cy="926.98" r="1" transform="rotate(-67.1273 992.583 926.98)" fill="#D9D9D9"/>
<circle cx="947.107" cy="1034.78" r="1" transform="rotate(-67.1273 947.107 1034.78)" fill="#D9D9D9"/>
<circle cx="703.113" cy="684.392" r="1" transform="rotate(-67.1273 703.113 684.392)" fill="#D9D9D9"/>
<circle cx="517.748" cy="784.191" r="1" transform="rotate(-67.1273 517.748 784.191)" fill="#D9D9D9"/>
<circle cx="335.949" cy="633.695" r="1" transform="rotate(-67.1273 335.949 633.695)" fill="#D9D9D9"/>
<circle cx="555.046" cy="646.893" r="1" transform="rotate(-67.1273 555.046 646.893)" fill="#D9D9D9"/>
<circle cx="1050.89" cy="788.774" r="1" transform="rotate(-67.1273 1050.89 788.774)" fill="#D9D9D9"/>
<circle cx="1191.26" cy="1019.47" r="1" transform="rotate(-67.1273 1191.26 1019.47)" fill="#D9D9D9"/>
<circle cx="1067.32" cy="1092" r="1" transform="rotate(-67.1273 1067.32 1092)" fill="#D9D9D9"/>
<defs>
<filter id="filter0_f_196_182" x="5.68164" y="605.733" width="946.715" height="1086.93" filterUnits="userSpaceOnUse" color-interpolation-filters="sRGB">
<feFlood flood-opacity="0" result="BackgroundImageFix"/>
<feBlend mode="normal" in="SourceGraphic" in2="BackgroundImageFix" result="shape"/>
<feGaussianBlur stdDeviation="200" result="effect1_foregroundBlur_196_182"/>
</filter>
<filter id="filter1_f_196_182" x="167.633" y="0.619141" width="1100.08" height="1100.08" filterUnits="userSpaceOnUse" color-interpolation-filters="sRGB">
<feFlood flood-opacity="0" result="BackgroundImageFix"/>
<feBlend mode="normal" in="SourceGraphic" in2="BackgroundImageFix" result="shape"/>
<feGaussianBlur stdDeviation="200" result="effect1_foregroundBlur_196_182"/>
</filter>
<filter id="filter2_f_196_182" x="47.7227" y="308.131" width="1021.95" height="1092.34" filterUnits="userSpaceOnUse" color-interpolation-filters="sRGB">
<feFlood flood-opacity="0" result="BackgroundImageFix"/>
<feBlend mode="normal" in="SourceGraphic" in2="BackgroundImageFix" result="shape"/>
<feGaussianBlur stdDeviation="200" result="effect1_foregroundBlur_196_182"/>
</filter>
</defs>
</svg>
