<svg width="182" height="28" viewBox="0 0 182 28" fill="none" xmlns="http://www.w3.org/2000/svg">
<path d="M20.3556 8.25071L28.1692 9.39816C28.8249 9.50745 29.3713 9.94457 29.5898 10.6003C29.8084 11.2013 29.6445 11.9116 29.1527 12.3488L23.4701 17.9767L24.8361 25.9542C24.9454 26.6099 24.6722 27.2656 24.1258 27.6481C23.5794 28.0852 22.8691 28.0852 22.268 27.812L15.274 24.0418L8.2254 27.812C7.679 28.0852 6.91403 28.0852 6.42227 27.6481C5.87586 27.2656 5.60266 26.6099 5.71194 25.9542L7.02331 17.9767L1.3407 12.3488C0.848938 11.9116 0.685016 11.2013 0.903578 10.6003C1.12214 9.94457 1.66855 9.50745 2.32423 9.39816L10.1925 8.25071L13.6895 0.983529C13.9627 0.382483 14.5637 0 15.274 0C15.9297 0 16.5308 0.382483 16.804 0.983529L20.3556 8.25071Z" fill="url(#paint0_linear_356_126)"/>
<path d="M58.2325 8.25071L66.0461 9.39816C66.7018 9.50745 67.2482 9.94457 67.4668 10.6003C67.6854 11.2013 67.5214 11.9116 67.0297 12.3488L61.3471 17.9767L62.7131 25.9542C62.8223 26.6099 62.5491 27.2656 62.0027 27.6481C61.4563 28.0852 60.746 28.0852 60.145 27.812L53.151 24.0418L46.1024 27.812C45.556 28.0852 44.791 28.0852 44.2992 27.6481C43.7528 27.2656 43.4796 26.6099 43.5889 25.9542L44.9003 17.9767L39.2177 12.3488C38.7259 11.9116 38.562 11.2013 38.7805 10.6003C38.9991 9.94457 39.5455 9.50745 40.2012 9.39816L48.0694 8.25071L51.5664 0.983529C51.8396 0.382483 52.4407 0 53.151 0C53.8067 0 54.4077 0.382483 54.6809 0.983529L58.2325 8.25071Z" fill="url(#paint1_linear_356_126)"/>
<path d="M96.1095 8.25071L103.923 9.39816C104.579 9.50745 105.125 9.94457 105.344 10.6003C105.562 11.2013 105.398 11.9116 104.907 12.3488L99.224 17.9767L100.59 25.9542C100.699 26.6099 100.426 27.2656 99.8797 27.6481C99.3333 28.0852 98.623 28.0852 98.0219 27.812L91.0279 24.0418L83.9793 27.812C83.4329 28.0852 82.6679 28.0852 82.1762 27.6481C81.6298 27.2656 81.3566 26.6099 81.4658 25.9542L82.7772 17.9767L77.0946 12.3488C76.6028 11.9116 76.4389 11.2013 76.6575 10.6003C76.876 9.94457 77.4225 9.50745 78.0781 9.39816L85.9464 8.25071L89.4434 0.983529C89.7166 0.382483 90.3176 0 91.0279 0C91.6836 0 92.2847 0.382483 92.5579 0.983529L96.1095 8.25071Z" fill="url(#paint2_linear_356_126)"/>
<path d="M133.984 8.25071L141.798 9.39816C142.454 9.50745 143 9.94457 143.219 10.6003C143.437 11.2013 143.273 11.9116 142.782 12.3488L137.099 17.9767L138.465 25.9542C138.574 26.6099 138.301 27.2656 137.755 27.6481C137.208 28.0852 136.498 28.0852 135.897 27.812L128.903 24.0418L121.854 27.812C121.308 28.0852 120.543 28.0852 120.051 27.6481C119.505 27.2656 119.232 26.6099 119.341 25.9542L120.652 17.9767L114.97 12.3488C114.478 11.9116 114.314 11.2013 114.532 10.6003C114.751 9.94457 115.297 9.50745 115.953 9.39816L123.821 8.25071L127.318 0.983529C127.592 0.382483 128.193 0 128.903 0C129.559 0 130.16 0.382483 130.433 0.983529L133.984 8.25071Z" fill="url(#paint3_linear_356_126)"/>
<path d="M171.861 8.25071L179.675 9.39816C180.331 9.50745 180.877 9.94457 181.096 10.6003C181.314 11.2013 181.15 11.9116 180.659 12.3488L174.976 17.9767L176.342 25.9542C176.451 26.6099 176.178 27.2656 175.632 27.6481C175.085 28.0852 174.375 28.0852 173.774 27.812L166.78 24.0418L159.731 27.812C159.185 28.0852 158.42 28.0852 157.928 27.6481C157.382 27.2656 157.109 26.6099 157.218 25.9542L158.529 17.9767L152.847 12.3488C152.355 11.9116 152.191 11.2013 152.409 10.6003C152.628 9.94457 153.174 9.50745 153.83 9.39816L161.698 8.25071L165.195 0.983529C165.469 0.382483 166.07 0 166.78 0C167.436 0 168.037 0.382483 168.31 0.983529L171.861 8.25071Z" fill="url(#paint4_linear_356_126)"/>
<defs>
<linearGradient id="paint0_linear_356_126" x1="3.25716" y1="1.82" x2="41.8146" y2="2.81234" gradientUnits="userSpaceOnUse">
<stop stop-color="#FFAE34"/>
<stop offset="0.500947" stop-color="#FF6B34"/>
<stop offset="1" stop-color="#FF0083"/>
</linearGradient>
<linearGradient id="paint1_linear_356_126" x1="41.1341" y1="1.82" x2="79.6915" y2="2.81234" gradientUnits="userSpaceOnUse">
<stop stop-color="#FFAE34"/>
<stop offset="0.500947" stop-color="#FF6B34"/>
<stop offset="1" stop-color="#FF0083"/>
</linearGradient>
<linearGradient id="paint2_linear_356_126" x1="79.0111" y1="1.82" x2="117.568" y2="2.81234" gradientUnits="userSpaceOnUse">
<stop stop-color="#FFAE34"/>
<stop offset="0.500947" stop-color="#FF6B34"/>
<stop offset="1" stop-color="#FF0083"/>
</linearGradient>
<linearGradient id="paint3_linear_356_126" x1="116.886" y1="1.82" x2="155.443" y2="2.81234" gradientUnits="userSpaceOnUse">
<stop stop-color="#FFAE34"/>
<stop offset="0.500947" stop-color="#FF6B34"/>
<stop offset="1" stop-color="#FF0083"/>
</linearGradient>
<linearGradient id="paint4_linear_356_126" x1="154.763" y1="1.82" x2="193.32" y2="2.81234" gradientUnits="userSpaceOnUse">
<stop stop-color="#FFAE34"/>
<stop offset="0.500947" stop-color="#FF6B34"/>
<stop offset="1" stop-color="#FF0083"/>
</linearGradient>
</defs>
</svg>
